<svg width="15" height="18" viewBox="0 0 15 18" fill="none" xmlns="http://www.w3.org/2000/svg">
<path d="M14.4643 1.07143H10.4464L10.1317 0.445318C10.065 0.311462 9.96233 0.198864 9.83515 0.120193C9.70798 0.0415218 9.56137 -0.000101383 9.41183 5.87033e-06H5.58482C5.43562 -0.000567697 5.28927 0.0409003 5.16255 0.119659C5.03582 0.198417 4.93385 0.311281 4.8683 0.445318L4.55357 1.07143H0.535714C0.393634 1.07143 0.257373 1.12788 0.156907 1.22834C0.0564412 1.32881 0 1.46507 0 1.60715L0 2.67858C0 2.82066 0.0564412 2.95692 0.156907 3.05738C0.257373 3.15785 0.393634 3.21429 0.535714 3.21429H14.4643C14.6064 3.21429 14.7426 3.15785 14.8431 3.05738C14.9436 2.95692 15 2.82066 15 2.67858V1.60715C15 1.46507 14.9436 1.32881 14.8431 1.22834C14.7426 1.12788 14.6064 1.07143 14.4643 1.07143ZM1.78125 15.6362C1.8068 16.0442 1.98688 16.4271 2.28484 16.707C2.5828 16.987 2.97623 17.1428 3.38504 17.1429H11.615C12.0238 17.1428 12.4172 16.987 12.7152 16.707C13.0131 16.4271 13.1932 16.0442 13.2187 15.6362L13.9286 4.28572H1.07143L1.78125 15.6362Z" fill="black"/>
</svg>
